<svg xmlns="http://www.w3.org/2000/svg" width="1028" height="439" fill="none"><path fill="#000" fill-opacity=".1" d="M221.295 114.085c0-14.505 5.195-26.953 15.584-37.342 10.389-10.39 22.837-15.584 37.343-15.584 14.505 0 26.953 5.195 37.342 15.584 10.389 10.39 15.584 22.837 15.584 37.342 0 14.506-5.195 26.953-15.584 37.343-10.389 10.389-22.837 15.583-37.342 15.583-9.606 0-18.427-2.45-26.463-7.35-8.037-4.705-14.506-11.076-19.407-19.113-4.704-7.841-7.057-16.662-7.057-26.463Zm335.199 0c0-14.505 5.195-26.953 15.584-37.342 10.389-10.39 22.837-15.584 37.342-15.584 14.506 0 26.954 5.195 37.343 15.584 10.389 10.39 15.584 22.837 15.584 37.342 0 14.506-5.195 26.953-15.584 37.343-10.389 10.389-22.837 15.583-37.343 15.583-9.605 0-18.426-2.45-26.463-7.35-8.037-4.705-14.505-11.076-19.406-19.113-4.704-7.841-7.057-16.662-7.057-26.463ZM454.045 227.21c74.097 0 142.215 9.605 204.354 28.816 62.335 19.406 119.672 47.045 172.01 82.917v61.159c-19.406-14.113-43.321-27.345-71.744-39.694-28.227-12.154-59.297-22.837-93.209-32.05-33.716-9.213-68.608-16.466-104.676-21.759-36.068-5.096-71.646-7.644-106.735-7.644-46.653 0-93.992 4.508-142.018 13.525-48.026 9.017-92.621 21.171-133.786 36.46-41.164 15.29-74.684 32.344-100.56 51.162v-61.159c52.339-35.872 109.578-63.511 171.717-82.917 62.335-19.211 130.551-28.816 204.647-28.816Z"/><path stroke="#000" stroke-opacity=".1" stroke-width="25" d="M133 38.5c102.4 15.2 166.333-10 185.5-24.5M739 38.324C636.324 53.414 572.218 28.396 553 14"/></svg>